<svg xmlns="http://www.w3.org/2000/svg" width="64" height="64" viewBox="0 0 64 64">
  <g id="Group_5" data-name="Group 5" transform="translate(-24 -154)">
    <rect id="Rectangle_3" data-name="Rectangle 3" width="64" height="64" rx="5" transform="translate(24 154)" fill="#020817"/>
    <path id="bug-svgrepo-com" d="M25.578,24.892l4.631,4.631a1.667,1.667,0,1,1-2.357,2.357l-4.33-4.313a10.014,10.014,0,0,1-5.132,2.524V15.113a1.672,1.672,0,0,0-3.344,0V30.092a10,10,0,0,1-5.132-2.524L5.584,31.88a1.667,1.667,0,0,1-2.357-2.357l4.631-4.631A9.947,9.947,0,0,1,6.8,21.733H1.672a1.672,1.672,0,0,1,0-3.344H6.687v-4.33L1.555,8.927A1.667,1.667,0,0,1,3.912,6.57l3.511,3.511h18.59L29.523,6.57A1.667,1.667,0,0,1,31.88,8.927l-5.132,5.132v4.33h5.015a1.672,1.672,0,1,1,0,3.344H26.631A9.785,9.785,0,0,1,25.578,24.892Zm-.5-16.534H8.359a8.359,8.359,0,1,1,16.718,0Z" transform="translate(39 170)" fill="#fff"/>
  </g>
</svg>
