<svg xmlns="http://www.w3.org/2000/svg" width="133.583" height="30" viewBox="0 0 133.583 30">
  <g id="Group_7" data-name="Group 7" transform="translate(-31.417 -17)">
    <text id="Bugster" transform="translate(66 41)" font-size="25" font-family="Inter-ExtraBold, Inter" font-weight="800"><tspan x="0" y="0">Bugster</tspan></text>
    <path id="bug-svgrepo-com" d="M18.343,17.852l3.321,3.321a1.2,1.2,0,0,1-1.69,1.69L16.868,19.77a7.181,7.181,0,0,1-3.681,1.81V10.838a1.2,1.2,0,0,0-2.4,0V21.58a7.169,7.169,0,0,1-3.681-1.81L4,22.863a1.2,1.2,0,0,1-1.69-1.69l3.321-3.321a7.133,7.133,0,0,1-.755-2.266H1.2a1.2,1.2,0,0,1,0-2.4H4.8V10.083L1.115,6.4a1.2,1.2,0,0,1,1.69-1.69L5.323,7.229H18.655l2.518-2.518a1.2,1.2,0,0,1,1.69,1.69l-3.681,3.681v3.105h3.6a1.2,1.2,0,1,1,0,2.4H19.1A7.017,7.017,0,0,1,18.343,17.852Zm-.36-11.857H5.994a5.994,5.994,0,0,1,11.989,0Z" transform="translate(31.417 20.394)"/>
  </g>
</svg>
